<svg width="102" height="102" viewBox="0 0 102 102" fill="none" xmlns="http://www.w3.org/2000/svg">
<path d="M6 27.0013C5.99975 27.5946 5.82355 28.1746 5.4937 28.6678C5.16385 29.161 4.69515 29.5453 4.14688 29.7721C3.5986 29.9989 2.99538 30.0581 2.41349 29.9421C1.83159 29.8261 1.29716 29.5402 0.877783 29.1204C0.458403 28.7007 0.172909 28.166 0.0573987 27.584C-0.0581112 27.002 0.00155332 26.3989 0.228847 25.8508C0.456141 25.3027 0.840858 24.8343 1.33434 24.5049C1.82783 24.1755 2.40792 23.9997 3.00127 24C3.39533 23.9998 3.78555 24.0774 4.14961 24.2282C4.51368 24.379 4.84443 24.6001 5.12296 24.8788C5.40148 25.1576 5.6223 25.4885 5.7728 25.8527C5.92329 26.2169 6.0005 26.6072 6 27.0013Z" fill="#444444"/>
<path d="M30 27.0013C29.9997 27.5946 29.8236 28.1746 29.4937 28.6678C29.1639 29.161 28.6952 29.5453 28.1469 29.7721C27.5986 29.9989 26.9954 30.0581 26.4135 29.9421C25.8316 29.8261 25.2972 29.5402 24.8778 29.1204C24.4584 28.7007 24.1729 28.166 24.0574 27.584C23.9419 27.002 24.0016 26.3989 24.2288 25.8508C24.4561 25.3027 24.8409 24.8343 25.3343 24.5049C25.8278 24.1755 26.4079 23.9997 27.0013 24C27.3953 23.9998 27.7855 24.0774 28.1496 24.2282C28.5137 24.379 28.8444 24.6001 29.123 24.8788C29.4015 25.1576 29.6223 25.4885 29.7728 25.8527C29.9233 26.2169 30.0005 26.6072 30 27.0013Z" fill="#444444"/>
<path d="M54 27.0013C53.9997 27.5946 53.8236 28.1746 53.4937 28.6678C53.1639 29.161 52.6952 29.5453 52.1469 29.7721C51.5986 29.999 50.9954 30.0581 50.4135 29.9421C49.8316 29.8261 49.2972 29.5402 48.8778 29.1204C48.4584 28.7007 48.1729 28.166 48.0574 27.584C47.9419 27.002 48.0016 26.3989 48.2289 25.8508C48.4561 25.3027 48.8409 24.8343 49.3343 24.5049C49.8278 24.1755 50.4079 23.9997 51.0013 24C51.3953 24 51.7854 24.0776 52.1494 24.2285C52.5134 24.3794 52.8441 24.6005 53.1226 24.8792C53.4011 25.1579 53.6219 25.4888 53.7725 25.8529C53.923 26.217 54.0003 26.6073 54 27.0013Z" fill="#444444"/>
<path d="M78 27.0013C77.9997 27.5946 77.8236 28.1746 77.4937 28.6678C77.1639 29.161 76.6952 29.5453 76.1469 29.7721C75.5986 29.999 74.9954 30.0581 74.4135 29.9421C73.8316 29.8261 73.2972 29.5402 72.8778 29.1204C72.4584 28.7007 72.1729 28.166 72.0574 27.584C71.9419 27.002 72.0015 26.3989 72.2288 25.8508C72.4561 25.3027 72.8409 24.8343 73.3343 24.5049C73.8278 24.1755 74.4079 23.9997 75.0013 24C75.3953 24 75.7854 24.0776 76.1494 24.2285C76.5134 24.3794 76.8441 24.6005 77.1226 24.8792C77.4011 25.1579 77.6219 25.4888 77.7725 25.8529C77.923 26.217 78.0003 26.6073 78 27.0013Z" fill="#444444"/>
<path d="M102 27.0013C102 27.5946 101.824 28.1746 101.494 28.6678C101.164 29.161 100.695 29.5453 100.147 29.7721C99.5986 29.999 98.9954 30.0581 98.4135 29.9421C97.8316 29.8261 97.2972 29.5402 96.8778 29.1204C96.4584 28.7007 96.1729 28.166 96.0574 27.584C95.9419 27.002 96.0015 26.3989 96.2288 25.8508C96.4561 25.3027 96.8409 24.8343 97.3343 24.5049C97.8278 24.1755 98.4079 23.9997 99.0013 24C99.3953 24 99.7854 24.0776 100.149 24.2285C100.513 24.3794 100.844 24.6005 101.123 24.8792C101.401 25.1579 101.622 25.4888 101.772 25.8529C101.923 26.217 102 26.6073 102 27.0013Z" fill="#444444"/>
<path d="M6 3.00126C5.99975 3.59461 5.82355 4.17455 5.4937 4.66776C5.16385 5.16097 4.69515 5.54529 4.14688 5.77212C3.5986 5.99895 2.99538 6.0581 2.41349 5.9421C1.83159 5.8261 1.29716 5.54015 0.877783 5.12042C0.458403 4.70069 0.172909 4.16602 0.0573987 3.58403C-0.0581112 3.00203 0.00155332 2.39886 0.228847 1.85078C0.456141 1.3027 0.840858 0.834323 1.33434 0.504888C1.82783 0.175452 2.40792 -0.00025014 3.00127 2.68548e-07C3.39533 -0.000166528 3.78555 0.0773673 4.14961 0.228167C4.51368 0.378967 4.84443 0.600073 5.12296 0.878832C5.40148 1.15759 5.6223 1.48853 5.7728 1.85272C5.92329 2.21691 6.0005 2.60721 6 3.00126Z" fill="#444444"/>
<path d="M30 3.00126C29.9997 3.59461 29.8236 4.17455 29.4937 4.66776C29.1639 5.16097 28.6952 5.54529 28.1469 5.77212C27.5986 5.99895 26.9954 6.0581 26.4135 5.9421C25.8316 5.8261 25.2972 5.54015 24.8778 5.12042C24.4584 4.70069 24.1729 4.16602 24.0574 3.58403C23.9419 3.00203 24.0016 2.39886 24.2288 1.85078C24.4561 1.3027 24.8409 0.834323 25.3343 0.504888C25.8278 0.175452 26.4079 -0.00025014 27.0013 2.68548e-07C27.3953 -0.000166528 27.7855 0.0773673 28.1496 0.228167C28.5137 0.378967 28.8444 0.600073 29.123 0.878832C29.4015 1.15759 29.6223 1.48853 29.7728 1.85272C29.9233 2.21691 30.0005 2.60721 30 3.00126Z" fill="#444444"/>
<path d="M54 3.00127C53.9997 3.59461 53.8236 4.17456 53.4937 4.66777C53.1639 5.16097 52.6952 5.54529 52.1469 5.77212C51.5986 5.99896 50.9954 6.05811 50.4135 5.94211C49.8316 5.82611 49.2972 5.54016 48.8778 5.12043C48.4584 4.70069 48.1729 4.16602 48.0574 3.58403C47.9419 3.00204 48.0016 2.39886 48.2289 1.85078C48.4561 1.3027 48.8409 0.834324 49.3343 0.504888C49.8278 0.175452 50.4079 -0.000250142 51.0013 2.67287e-07C51.3953 1.26755e-07 51.7854 0.0776489 52.1494 0.228508C52.5134 0.379367 52.8441 0.600478 53.1226 0.879204C53.4011 1.15793 53.6219 1.48881 53.7725 1.85292C53.923 2.21704 54.0003 2.60725 54 3.00127Z" fill="#444444"/>
<path d="M78 3.00127C77.9997 3.59461 77.8236 4.17455 77.4937 4.66776C77.1639 5.16097 76.6952 5.54529 76.1469 5.77212C75.5986 5.99895 74.9954 6.05811 74.4135 5.94211C73.8316 5.82611 73.2972 5.54016 72.8778 5.12042C72.4584 4.70069 72.1729 4.16602 72.0574 3.58403C71.9419 3.00204 72.0015 2.39886 72.2288 1.85078C72.4561 1.3027 72.8409 0.834324 73.3343 0.504888C73.8278 0.175452 74.4079 -0.000250142 75.0013 2.67287e-07C75.3953 1.26755e-07 75.7854 0.0776489 76.1494 0.228508C76.5134 0.379366 76.8441 0.600477 77.1226 0.879204C77.4011 1.15793 77.6219 1.48881 77.7725 1.85292C77.923 2.21704 78.0003 2.60725 78 3.00127Z" fill="#444444"/>
<path d="M102 3.00127C102 3.59461 101.824 4.17455 101.494 4.66776C101.164 5.16097 100.695 5.54529 100.147 5.77212C99.5986 5.99895 98.9954 6.05811 98.4135 5.94211C97.8316 5.82611 97.2972 5.54016 96.8778 5.12042C96.4584 4.70069 96.1729 4.16602 96.0574 3.58403C95.9419 3.00204 96.0015 2.39886 96.2288 1.85078C96.4561 1.3027 96.8409 0.834324 97.3343 0.504888C97.8278 0.175452 98.4079 -0.000250142 99.0013 2.67287e-07C99.3953 1.26755e-07 99.7854 0.0776489 100.149 0.228508C100.513 0.379366 100.844 0.600477 101.123 0.879204C101.401 1.15793 101.622 1.48881 101.772 1.85292C101.923 2.21704 102 2.60725 102 3.00127Z" fill="#444444"/>
<path d="M6 51.0013C5.99975 51.5946 5.82355 52.1746 5.4937 52.6678C5.16385 53.161 4.69515 53.5453 4.14688 53.7721C3.5986 53.9989 2.99538 54.0581 2.41349 53.9421C1.83159 53.8261 1.29716 53.5402 0.877783 53.1204C0.458403 52.7007 0.172909 52.166 0.0573987 51.584C-0.0581112 51.002 0.00155332 50.3989 0.228847 49.8508C0.456141 49.3027 0.840858 48.8343 1.33434 48.5049C1.82783 48.1755 2.40792 47.9997 3.00127 48C3.39533 47.9998 3.78555 48.0774 4.14961 48.2282C4.51368 48.379 4.84443 48.6001 5.12296 48.8788C5.40148 49.1576 5.6223 49.4885 5.7728 49.8527C5.92329 50.2169 6.0005 50.6072 6 51.0013Z" fill="#444444"/>
<path d="M30 51.0013C29.9997 51.5946 29.8236 52.1746 29.4937 52.6678C29.1639 53.161 28.6952 53.5453 28.1469 53.7721C27.5986 53.9989 26.9954 54.0581 26.4135 53.9421C25.8316 53.8261 25.2972 53.5402 24.8778 53.1204C24.4584 52.7007 24.1729 52.166 24.0574 51.584C23.9419 51.002 24.0016 50.3989 24.2288 49.8508C24.4561 49.3027 24.8409 48.8343 25.3343 48.5049C25.8278 48.1755 26.4079 47.9997 27.0013 48C27.3953 47.9998 27.7855 48.0774 28.1496 48.2282C28.5137 48.379 28.8444 48.6001 29.123 48.8788C29.4015 49.1576 29.6223 49.4885 29.7728 49.8527C29.9233 50.2169 30.0005 50.6072 30 51.0013Z" fill="#444444"/>
<path d="M54 51.0013C53.9997 51.5946 53.8236 52.1746 53.4937 52.6678C53.1639 53.161 52.6952 53.5453 52.1469 53.7721C51.5986 53.999 50.9954 54.0581 50.4135 53.9421C49.8316 53.8261 49.2972 53.5402 48.8778 53.1204C48.4584 52.7007 48.1729 52.166 48.0574 51.584C47.9419 51.002 48.0016 50.3989 48.2289 49.8508C48.4561 49.3027 48.8409 48.8343 49.3343 48.5049C49.8278 48.1755 50.4079 47.9997 51.0013 48C51.3953 48 51.7854 48.0776 52.1494 48.2285C52.5134 48.3794 52.8441 48.6005 53.1226 48.8792C53.4011 49.1579 53.6219 49.4888 53.7725 49.8529C53.923 50.217 54.0003 50.6073 54 51.0013Z" fill="#444444"/>
<path d="M78 51.0013C77.9997 51.5946 77.8236 52.1746 77.4937 52.6678C77.1639 53.161 76.6952 53.5453 76.1469 53.7721C75.5986 53.999 74.9954 54.0581 74.4135 53.9421C73.8316 53.8261 73.2972 53.5402 72.8778 53.1204C72.4584 52.7007 72.1729 52.166 72.0574 51.584C71.9419 51.002 72.0015 50.3989 72.2288 49.8508C72.4561 49.3027 72.8409 48.8343 73.3343 48.5049C73.8278 48.1755 74.4079 47.9997 75.0013 48C75.3953 48 75.7854 48.0776 76.1494 48.2285C76.5134 48.3794 76.8441 48.6005 77.1226 48.8792C77.4011 49.1579 77.6219 49.4888 77.7725 49.8529C77.923 50.217 78.0003 50.6073 78 51.0013Z" fill="#444444"/>
<path d="M102 51.0013C102 51.5946 101.824 52.1746 101.494 52.6678C101.164 53.161 100.695 53.5453 100.147 53.7721C99.5986 53.999 98.9954 54.0581 98.4135 53.9421C97.8316 53.8261 97.2972 53.5402 96.8778 53.1204C96.4584 52.7007 96.1729 52.166 96.0574 51.584C95.9419 51.002 96.0015 50.3989 96.2288 49.8508C96.4561 49.3027 96.8409 48.8343 97.3343 48.5049C97.8278 48.1755 98.4079 47.9997 99.0013 48C99.3953 48 99.7854 48.0776 100.149 48.2285C100.513 48.3794 100.844 48.6005 101.123 48.8792C101.401 49.1579 101.622 49.4888 101.772 49.8529C101.923 50.217 102 50.6073 102 51.0013Z" fill="#444444"/>
<path d="M6 75.0013C5.99975 75.5946 5.82355 76.1746 5.4937 76.6678C5.16385 77.161 4.69515 77.5453 4.14688 77.7721C3.5986 77.9989 2.99538 78.0581 2.41349 77.9421C1.83159 77.8261 1.29716 77.5402 0.877783 77.1204C0.458403 76.7007 0.172909 76.166 0.0573987 75.584C-0.0581112 75.002 0.00155332 74.3989 0.228847 73.8508C0.456141 73.3027 0.840858 72.8343 1.33434 72.5049C1.82783 72.1755 2.40792 71.9997 3.00127 72C3.39533 71.9998 3.78555 72.0774 4.14961 72.2282C4.51368 72.379 4.84443 72.6001 5.12296 72.8788C5.40148 73.1576 5.6223 73.4885 5.7728 73.8527C5.92329 74.2169 6.0005 74.6072 6 75.0013Z" fill="#444444"/>
<path d="M30 75.0013C29.9997 75.5946 29.8236 76.1746 29.4937 76.6678C29.1639 77.161 28.6952 77.5453 28.1469 77.7721C27.5986 77.9989 26.9954 78.0581 26.4135 77.9421C25.8316 77.8261 25.2972 77.5402 24.8778 77.1204C24.4584 76.7007 24.1729 76.166 24.0574 75.584C23.9419 75.002 24.0016 74.3989 24.2288 73.8508C24.4561 73.3027 24.8409 72.8343 25.3343 72.5049C25.8278 72.1755 26.4079 71.9997 27.0013 72C27.3953 71.9998 27.7855 72.0774 28.1496 72.2282C28.5137 72.379 28.8444 72.6001 29.123 72.8788C29.4015 73.1576 29.6223 73.4885 29.7728 73.8527C29.9233 74.2169 30.0005 74.6072 30 75.0013Z" fill="#444444"/>
<path d="M54 75.0013C53.9997 75.5946 53.8236 76.1746 53.4937 76.6678C53.1639 77.161 52.6952 77.5453 52.1469 77.7721C51.5986 77.999 50.9954 78.0581 50.4135 77.9421C49.8316 77.8261 49.2972 77.5402 48.8778 77.1204C48.4584 76.7007 48.1729 76.166 48.0574 75.584C47.9419 75.002 48.0016 74.3989 48.2289 73.8508C48.4561 73.3027 48.8409 72.8343 49.3343 72.5049C49.8278 72.1755 50.4079 71.9997 51.0013 72C51.3953 72 51.7854 72.0776 52.1494 72.2285C52.5134 72.3794 52.8441 72.6005 53.1226 72.8792C53.4011 73.1579 53.6219 73.4888 53.7725 73.8529C53.923 74.217 54.0003 74.6073 54 75.0013Z" fill="#444444"/>
<path d="M78 75.0013C77.9997 75.5946 77.8236 76.1746 77.4937 76.6678C77.1639 77.161 76.6952 77.5453 76.1469 77.7721C75.5986 77.999 74.9954 78.0581 74.4135 77.9421C73.8316 77.8261 73.2972 77.5402 72.8778 77.1204C72.4584 76.7007 72.1729 76.166 72.0574 75.584C71.9419 75.002 72.0015 74.3989 72.2288 73.8508C72.4561 73.3027 72.8409 72.8343 73.3343 72.5049C73.8278 72.1755 74.4079 71.9997 75.0013 72C75.3953 72 75.7854 72.0776 76.1494 72.2285C76.5134 72.3794 76.8441 72.6005 77.1226 72.8792C77.4011 73.1579 77.6219 73.4888 77.7725 73.8529C77.923 74.217 78.0003 74.6073 78 75.0013Z" fill="#444444"/>
<path d="M102 75.0013C102 75.5946 101.824 76.1746 101.494 76.6678C101.164 77.161 100.695 77.5453 100.147 77.7721C99.5986 77.999 98.9954 78.0581 98.4135 77.9421C97.8316 77.8261 97.2972 77.5402 96.8778 77.1204C96.4584 76.7007 96.1729 76.166 96.0574 75.584C95.9419 75.002 96.0015 74.3989 96.2288 73.8508C96.4561 73.3027 96.8409 72.8343 97.3343 72.5049C97.8278 72.1755 98.4079 71.9997 99.0013 72C99.3953 72 99.7854 72.0776 100.149 72.2285C100.513 72.3794 100.844 72.6005 101.123 72.8792C101.401 73.1579 101.622 73.4888 101.772 73.8529C101.923 74.217 102 74.6073 102 75.0013Z" fill="#444444"/>
<path d="M6 99.0013C5.99975 99.5946 5.82355 100.175 5.4937 100.668C5.16385 101.161 4.69515 101.545 4.14688 101.772C3.5986 101.999 2.99538 102.058 2.41349 101.942C1.83159 101.826 1.29716 101.54 0.877783 101.12C0.458403 100.701 0.172909 100.166 0.0573987 99.584C-0.0581112 99.002 0.00155332 98.3989 0.228847 97.8508C0.456141 97.3027 0.840858 96.8343 1.33434 96.5049C1.82783 96.1755 2.40792 95.9997 3.00127 96C3.39533 95.9998 3.78555 96.0774 4.14961 96.2282C4.51368 96.379 4.84443 96.6001 5.12296 96.8788C5.40148 97.1576 5.6223 97.4885 5.7728 97.8527C5.92329 98.2169 6.0005 98.6072 6 99.0013Z" fill="#444444"/>
<path d="M30 99.0013C29.9997 99.5946 29.8236 100.175 29.4937 100.668C29.1639 101.161 28.6952 101.545 28.1469 101.772C27.5986 101.999 26.9954 102.058 26.4135 101.942C25.8316 101.826 25.2972 101.54 24.8778 101.12C24.4584 100.701 24.1729 100.166 24.0574 99.584C23.9419 99.002 24.0016 98.3989 24.2288 97.8508C24.4561 97.3027 24.8409 96.8343 25.3343 96.5049C25.8278 96.1755 26.4079 95.9997 27.0013 96C27.3953 95.9998 27.7855 96.0774 28.1496 96.2282C28.5137 96.379 28.8444 96.6001 29.123 96.8788C29.4015 97.1576 29.6223 97.4885 29.7728 97.8527C29.9233 98.2169 30.0005 98.6072 30 99.0013Z" fill="#444444"/>
<path d="M54 99.0013C53.9997 99.5946 53.8236 100.175 53.4937 100.668C53.1639 101.161 52.6952 101.545 52.1469 101.772C51.5986 101.999 50.9954 102.058 50.4135 101.942C49.8316 101.826 49.2972 101.54 48.8778 101.12C48.4584 100.701 48.1729 100.166 48.0574 99.584C47.9419 99.002 48.0016 98.3989 48.2289 97.8508C48.4561 97.3027 48.8409 96.8343 49.3343 96.5049C49.8278 96.1755 50.4079 95.9997 51.0013 96C51.3953 96 51.7854 96.0776 52.1494 96.2285C52.5134 96.3794 52.8441 96.6005 53.1226 96.8792C53.4011 97.1579 53.6219 97.4888 53.7725 97.8529C53.923 98.217 54.0003 98.6073 54 99.0013Z" fill="#444444"/>
<path d="M78 99.0013C77.9997 99.5946 77.8236 100.175 77.4937 100.668C77.1639 101.161 76.6952 101.545 76.1469 101.772C75.5986 101.999 74.9954 102.058 74.4135 101.942C73.8316 101.826 73.2972 101.54 72.8778 101.12C72.4584 100.701 72.1729 100.166 72.0574 99.584C71.9419 99.002 72.0015 98.3989 72.2288 97.8508C72.4561 97.3027 72.8409 96.8343 73.3343 96.5049C73.8278 96.1755 74.4079 95.9997 75.0013 96C75.3953 96 75.7854 96.0776 76.1494 96.2285C76.5134 96.3794 76.8441 96.6005 77.1226 96.8792C77.4011 97.1579 77.6219 97.4888 77.7725 97.8529C77.923 98.217 78.0003 98.6073 78 99.0013Z" fill="#444444"/>
<path d="M102 99.0013C102 99.5946 101.824 100.175 101.494 100.668C101.164 101.161 100.695 101.545 100.147 101.772C99.5986 101.999 98.9954 102.058 98.4135 101.942C97.8316 101.826 97.2972 101.54 96.8778 101.12C96.4584 100.701 96.1729 100.166 96.0574 99.584C95.9419 99.002 96.0015 98.3989 96.2288 97.8508C96.4561 97.3027 96.8409 96.8343 97.3343 96.5049C97.8278 96.1755 98.4079 95.9997 99.0013 96C99.3953 96 99.7854 96.0776 100.149 96.2285C100.513 96.3794 100.844 96.6005 101.123 96.8792C101.401 97.1579 101.622 97.4888 101.772 97.8529C101.923 98.217 102 98.6073 102 99.0013Z" fill="#444444"/>
</svg>
